<?xml version="1.0" standalone="no"?>
<!DOCTYPE svg PUBLIC "-//W3C//DTD SVG 20010904//EN"
 "http://www.w3.org/TR/2001/REC-SVG-20010904/DTD/svg10.dtd">
<svg version="1.0" xmlns="http://www.w3.org/2000/svg"
 width="954.000000pt" height="954.000000pt" viewBox="0 0 954.000000 954.000000"
 preserveAspectRatio="xMidYMid meet">
<metadata>
Created by potrace 1.14, written by Peter Selinger 2001-2017
</metadata>
<g transform="translate(0.000000,954.000000) scale(0.100000,-0.100000)"
fill="#000000" stroke="none">
<path d="M4260 9537 c-3 -3 -36 -8 -75 -11 -38 -4 -77 -8 -85 -11 -13 -3 -53
-10 -125 -20 -52 -8 -195 -37 -315 -65 -28 -7 -126 -34 -235 -65 -5 -1 -25 -6
-42 -10 -18 -4 -33 -12 -33 -17 0 -5 -4 -7 -9 -4 -8 5 -206 -63 -306 -105 -16
-6 -35 -13 -40 -14 -6 -2 -33 -12 -60 -25 -28 -12 -66 -28 -85 -37 -91 -40
-286 -137 -291 -145 -3 -6 -8 -9 -10 -8 -8 4 -99 -44 -99 -52 0 -4 -9 -8 -19
-8 -11 0 -21 -3 -23 -8 -4 -9 -177 -112 -189 -112 -5 0 -9 -5 -9 -10 0 -6 -16
-18 -35 -27 -19 -9 -35 -20 -35 -25 0 -4 -5 -8 -11 -8 -11 0 -82 -50 -87 -62
-2 -5 -8 -8 -13 -8 -11 0 -170 -119 -186 -139 -7 -9 -13 -13 -13 -8 0 4 -8 -1
-18 -10 -10 -10 -40 -36 -67 -58 -152 -124 -340 -305 -480 -461 -38 -42 -82
-90 -96 -106 -15 -15 -35 -40 -45 -54 -11 -15 -24 -31 -29 -38 -6 -6 -39 -47
-73 -91 -34 -44 -66 -85 -72 -92 -5 -7 -10 -15 -10 -17 0 -6 -23 -35 -46 -60
-5 -6 -19 -27 -30 -46 -10 -19 -21 -37 -25 -40 -18 -16 -148 -227 -216 -350
-70 -125 -223 -440 -223 -458 0 -4 -7 -20 -16 -37 -8 -16 -26 -59 -39 -95 -78
-216 -114 -322 -113 -328 1 -4 -4 -20 -10 -35 -7 -16 -12 -36 -12 -46 0 -10
-3 -21 -7 -25 -4 -3 -8 -12 -10 -19 -1 -7 -19 -77 -39 -157 -20 -80 -38 -158
-39 -175 -1 -16 -6 -38 -10 -48 -4 -10 -8 -31 -9 -47 0 -17 -3 -30 -7 -30 -3
0 -5 -15 -4 -32 1 -18 -1 -37 -4 -43 -6 -12 -7 -14 -15 -87 -4 -31 -10 -66
-13 -79 -4 -13 -8 -261 -10 -551 -4 -456 -2 -543 13 -650 9 -67 18 -136 20
-153 2 -16 6 -43 9 -60 4 -16 7 -38 8 -47 1 -10 5 -18 10 -18 4 0 6 -4 2 -9
-6 -10 17 -121 61 -300 15 -57 27 -108 29 -115 1 -6 7 -24 13 -39 7 -16 12
-32 12 -37 0 -13 73 -234 99 -297 11 -29 17 -53 13 -53 -4 0 -2 -4 4 -8 8 -5
44 -88 49 -112 1 -3 14 -32 29 -65 16 -33 29 -66 29 -72 0 -7 4 -13 9 -13 4 0
7 -3 6 -7 -3 -11 74 -167 84 -171 4 -2 8 -11 8 -21 0 -9 6 -25 14 -36 7 -11
29 -50 49 -87 48 -89 61 -112 67 -118 10 -10 41 -65 47 -82 3 -10 9 -18 14
-18 5 0 9 -5 9 -11 0 -9 55 -97 69 -109 3 -3 12 -17 20 -32 8 -15 22 -37 33
-47 10 -11 18 -22 18 -25 0 -3 23 -36 51 -73 27 -37 58 -78 67 -91 9 -13 25
-33 36 -45 10 -12 30 -38 45 -57 14 -19 31 -40 36 -46 6 -6 29 -33 52 -60 23
-27 62 -71 87 -98 25 -26 46 -52 46 -57 0 -5 7 -9 15 -9 8 0 15 -4 15 -9 0 -8
113 -122 247 -249 108 -102 362 -303 503 -397 41 -27 77 -52 80 -55 7 -7 183
-116 240 -148 106 -60 131 -73 240 -128 63 -31 127 -63 141 -70 41 -21 193
-86 206 -88 7 -1 16 -5 19 -9 4 -4 16 -7 26 -7 10 0 18 -4 18 -9 0 -5 17 -13
38 -19 20 -6 89 -28 152 -50 148 -51 351 -110 430 -126 14 -3 52 -12 85 -20
59 -14 94 -21 158 -31 27 -5 50 -9 112 -20 6 -1 12 -3 15 -4 3 -1 28 -4 55 -6
28 -3 73 -9 100 -14 75 -15 1210 -7 1210 9 0 2 25 6 85 14 52 7 86 12 155 27
28 5 64 12 81 15 17 2 66 14 110 25 43 10 90 22 104 25 14 3 63 16 110 30 47
14 92 27 101 29 8 2 32 10 52 19 20 8 37 13 37 11 0 -5 161 53 285 103 213 86
397 175 598 291 117 67 120 69 174 104 24 15 45 27 48 27 3 0 16 10 29 21 14
12 33 27 44 33 34 20 87 55 97 63 6 5 25 20 44 33 19 14 44 32 55 41 241 192
253 201 384 324 126 117 307 306 359 373 10 13 29 36 43 50 14 15 48 56 75 92
68 87 78 100 93 115 6 8 12 16 12 19 0 3 23 36 51 73 28 37 54 75 57 83 3 8 8
17 12 20 4 3 28 39 54 80 27 41 56 86 65 100 9 14 23 39 31 55 8 17 17 32 20
35 9 9 39 63 72 130 18 36 35 67 38 70 12 12 50 93 50 106 0 8 4 14 9 14 5 0
13 10 17 22 4 13 23 56 42 98 62 134 197 490 186 490 -4 0 -2 6 3 12 8 11 32
84 39 121 1 4 3 9 4 12 1 3 4 10 5 15 1 6 3 11 5 13 1 1 3 9 5 17 2 8 13 51
25 95 12 44 23 91 26 105 3 14 10 43 16 65 6 22 12 51 13 65 1 14 5 34 8 45 3
11 9 38 12 60 3 23 8 52 10 65 8 40 13 72 19 115 3 22 10 76 16 119 12 96 12
1043 0 1131 -5 33 -11 80 -13 105 -3 25 -7 56 -11 70 -6 26 -14 74 -21 125 -2
17 -6 39 -9 50 -2 11 -12 56 -21 100 -9 44 -19 87 -22 95 -3 8 -7 28 -9 44 -2
16 -9 35 -15 43 -6 7 -9 13 -6 13 3 0 -1 24 -9 53 -15 52 -22 80 -29 107 -2 8
-4 16 -5 18 -2 1 -4 7 -5 12 -1 6 -4 12 -5 15 -1 3 -3 8 -4 13 -2 14 -28 97
-37 117 -4 11 -19 52 -32 90 -41 115 -100 261 -143 349 -8 16 -14 35 -14 43 0
7 -4 13 -10 13 -5 0 -10 6 -10 13 0 15 -62 141 -80 162 -7 8 -9 15 -5 15 4 0
0 11 -9 25 -10 14 -27 45 -40 68 -25 47 -60 108 -85 148 -9 15 -31 53 -50 85
-19 33 -37 61 -41 64 -3 3 -28 39 -55 80 -28 41 -53 80 -58 85 -4 6 -46 62
-93 125 -47 63 -91 120 -98 125 -7 6 -17 17 -22 26 -10 18 -99 121 -184 212
-82 88 -326 327 -335 327 -2 0 -21 17 -43 38 -52 48 -120 105 -141 116 -9 5
-22 16 -30 23 -14 14 -138 108 -201 152 -127 89 -402 261 -418 261 -4 0 -18 9
-32 20 -14 11 -32 20 -42 20 -9 0 -18 4 -20 9 -3 8 -193 102 -303 151 -27 12
-63 27 -80 35 -16 7 -68 27 -115 45 -47 17 -94 35 -105 40 -26 12 -180 62
-275 89 -41 13 -82 25 -90 28 -8 4 -23 7 -32 8 -10 2 -19 3 -20 5 -2 1 -10 3
-18 5 -8 1 -42 10 -76 19 -33 8 -71 18 -85 20 -13 2 -24 5 -24 6 0 1 -16 3
-35 6 -19 2 -46 7 -60 11 -14 3 -33 7 -42 8 -10 2 -21 4 -25 5 -5 1 -12 3 -18
5 -5 1 -12 3 -15 4 -3 1 -26 4 -51 6 -26 2 -60 7 -75 10 -16 3 -42 8 -59 11
-38 7 -1119 17 -1125 11z"/>
</g>
</svg>
