<?xml version="1.0" standalone="no"?>
<!DOCTYPE svg PUBLIC "-//W3C//DTD SVG 20010904//EN"
 "http://www.w3.org/TR/2001/REC-SVG-20010904/DTD/svg10.dtd">
<svg version="1.0" xmlns="http://www.w3.org/2000/svg"
 width="954.000000pt" height="954.000000pt" viewBox="0 0 954.000000 954.000000"
 preserveAspectRatio="xMidYMid meet">
<metadata>
Created by potrace 1.14, written by Peter Selinger 2001-2017
</metadata>
<g transform="translate(0.000000,954.000000) scale(0.100000,-0.100000)"
fill="#000000" stroke="none">
<path d="M4555 9530 c-445 -23 -956 -124 -1342 -263 -462 -168 -889 -397
-1268 -681 -939 -704 -1607 -1781 -1814 -2926 -64 -353 -84 -565 -84 -890 0
-584 102 -1144 308 -1690 531 -1409 1685 -2475 3127 -2890 767 -220 1550 -242
2348 -64 440 99 951 304 1356 547 1251 748 2088 2030 2278 3489 52 401 52 829
0 1218 -77 574 -252 1128 -511 1619 -596 1130 -1619 1975 -2828 2335 -508 152
-1072 222 -1570 196z m25 -1878 c0 -5 -46 -34 -102 -64 -107 -58 -174 -95
-443 -243 -88 -48 -204 -112 -257 -142 -54 -29 -144 -78 -200 -109 -57 -31
-195 -107 -308 -169 -204 -112 -296 -162 -718 -394 -123 -68 -225 -121 -228
-119 -2 3 38 79 90 169 51 90 205 360 341 599 136 239 254 445 261 458 l14 22
775 0 c426 0 775 -4 775 -8z m1988 -149 c49 -87 219 -385 377 -661 157 -277
284 -506 282 -509 -7 -6 -72 32 -482 284 -71 44 -186 114 -255 155 -750 455
-1426 870 -1428 878 -2 7 248 10 706 10 l710 0 90 -157z m-1072 -1248 c297
-52 575 -227 745 -468 65 -92 141 -243 168 -333 89 -296 61 -624 -75 -889
-136 -266 -365 -469 -640 -568 l-72 -26 -287 502 c-158 276 -291 506 -295 510
-8 9 -32 -29 -140 -220 -35 -62 -67 -113 -72 -113 -4 0 -8 126 -8 280 l0 280
-345 0 -345 0 6 43 c65 425 347 786 739 942 172 68 429 93 621 60z m-3446
-1467 c-11 -641 -20 -1221 -20 -1289 0 -107 -2 -121 -14 -109 -8 8 -172 291
-365 628 l-350 614 181 316 c99 174 206 362 238 417 32 55 115 201 185 325
151 267 155 273 161 267 3 -3 -4 -529 -16 -1169z m5819 433 c182 -319 331
-584 331 -589 0 -13 -678 -1203 -697 -1222 -12 -13 -13 17 -8 220 7 287 35
1928 35 2069 0 55 2 101 4 101 3 0 154 -261 335 -579z m-3151 -451 l2 -326
-53 -89 c-29 -50 -153 -267 -276 -482 l-224 -393 -554 0 -553 0 0 810 0 810
828 -2 827 -3 3 -325z m368 -73 c22 -39 147 -259 279 -487 131 -228 317 -552
413 -720 96 -168 196 -342 223 -386 26 -45 55 -96 63 -113 l17 -31 -1041 0
c-715 0 -1040 3 -1040 10 0 10 269 483 851 1498 95 166 178 302 184 302 5 0
28 -33 51 -73z m-2241 -2089 c281 -171 548 -334 595 -363 227 -139 551 -336
845 -515 94 -56 174 -107 179 -111 6 -5 -309 -9 -715 -9 l-724 0 -61 108
c-336 585 -690 1210 -697 1225 -9 23 -71 59 578 -335z m4293 159 c-4 -17 -638
-1129 -652 -1144 -9 -10 -173 -13 -734 -13 -397 0 -722 3 -723 7 -1 4 41 30
92 58 52 28 166 91 254 139 155 86 339 187 788 432 116 64 250 138 297 164
236 130 437 241 545 301 129 72 138 76 133 56z"/>
</g>
</svg>
